<svg width="40" height="17" viewBox="0 0 40 17" fill="none" xmlns="http://www.w3.org/2000/svg">
<path d="M33.2104 16.2403C35.054 16.2403 35.9217 15.5443 36.6796 13.4344L40 4.219H38.0775L35.8509 11.3486H35.8119L33.5853 4.2287H31.6084L34.8116 12.9998L34.6401 13.5333C34.5189 14.297 33.826 14.8418 33.0462 14.7854C32.8973 14.7854 32.6086 14.7701 32.4915 14.7549V16.2033C32.7298 16.2355 32.9705 16.2508 33.2104 16.25V16.2403ZM26.8039 11.6254C25.7955 11.6254 25.1555 11.1426 25.1555 10.4119C25.1555 9.6547 25.7727 9.2137 26.9527 9.1437L29.0541 9.0126V9.6933C29.0077 10.8151 28.0505 11.6882 26.9169 11.6423C26.8787 11.6407 26.8413 11.6375 26.8039 11.6343V11.6254ZM26.2964 13.0553C27.4406 13.0859 28.5108 12.4961 29.0858 11.5168H29.1248V12.9652H30.8749V6.9662C30.8749 5.2265 29.4688 4.1055 27.304 4.1055C25.2962 4.1055 23.8112 5.2418 23.7567 6.8037H25.4604C25.6637 6.0094 26.4265 5.4856 27.2495 5.5741C28.4059 5.5741 29.0541 6.1076 29.0541 7.0893V7.754L26.6957 7.8932C24.5 8.0244 23.3127 8.9136 23.3127 10.4602C23.3111 12.0286 24.5374 13.0642 26.2956 13.0642L26.2964 13.0553ZM16.1547 2.4873H18.3342C19.9753 2.4873 20.9129 3.3532 20.9129 4.8764C20.9129 6.3997 19.9753 7.2728 18.3269 7.2728H16.1547V2.4873ZM14.264 0.9101V12.9628H16.1547V8.854H18.7725C20.9048 8.9675 22.7256 7.3493 22.8402 5.2394C22.8467 5.1195 22.8475 5.0004 22.8427 4.8805C22.9435 2.7939 21.3163 1.022 19.2076 0.9214C19.0831 0.9157 18.9595 0.9165 18.8351 0.9222L14.264 0.9101ZM7.9884 3.1592C6.9019 3.0973 5.9724 3.77 5.4568 3.77C4.94124 3.77 4.14428 3.1906 3.28471 3.2067C2.1462 3.2357 1.10853 3.8593 0.557978 4.8459C-0.613872 6.8407 0.253018 9.7939 1.38584 11.417C1.94045 12.2217 2.60567 13.1028 3.47988 13.0714C4.30774 13.0409 4.63628 12.5379 5.6365 12.5379C6.6368 12.5379 6.9336 13.0714 7.8087 13.0553C8.7146 13.0401 9.2855 12.2506 9.8417 11.446C10.2337 10.8762 10.5386 10.2526 10.7476 9.5952C9.6799 9.1333 8.9878 8.0928 8.9821 6.9397C8.9984 5.9225 9.5367 4.9843 10.4118 4.4508C9.8539 3.667 8.9585 3.1858 7.99 3.152L7.9884 3.1592ZM7.3101 2.0946C6.8344 2.6877 6.1066 3.0281 5.3413 3.0144C5.2925 2.2757 5.5463 1.549 6.0448 0.997C6.5408 0.4273 7.2402 0.07 7.9965 0C8.0502 0.7596 7.8038 1.5096 7.3085 2.0922" fill="white"/>
</svg>
