<svg width="40" height="40" viewBox="0 0 40 40" fill="none" xmlns="http://www.w3.org/2000/svg">
<g clip-path="url(#clip0_477_42)">
<path d="M20 39.8293C31.0457 39.8293 40 31.0739 40 20.2737C40 9.47346 31.0457 0.71814 20 0.71814C8.9543 0.71814 0 9.47346 0 20.2737C0 31.0739 8.9543 39.8293 20 39.8293Z" fill="#CFCFCF"/>
<mask id="mask0_477_42" style="mask-type:luminance" maskUnits="userSpaceOnUse" x="9" y="9" width="22" height="22">
<path d="M30.9091 9.60699H9.09091V30.9403H30.9091V9.60699Z" fill="white"/>
</mask>
<g mask="url(#mask0_477_42)">
<path d="M20 11.3848C14.9791 11.3848 10.9091 15.3643 10.9091 20.2737C10.9091 24.7101 14.2336 28.3874 18.58 29.055V22.8425H16.2709V20.2737H18.58V18.3154C18.58 16.0879 19.9364 14.8577 22.0136 14.8577C23.0082 14.8577 24.0482 15.031 24.0482 15.031V17.2177H22.9027C21.7727 17.2177 21.4209 17.903 21.4209 18.6061V20.2737H23.9418L23.5391 22.8425H21.4209V29.055C25.7664 28.3883 29.0909 24.7092 29.0909 20.2737C29.0909 15.3643 25.0209 11.3848 20 11.3848Z" fill="#1A1A1A"/>
</g>
</g>
<defs>
<clipPath id="clip0_477_42">
<rect width="40" height="40" fill="white"/>
</clipPath>
</defs>
</svg>
