<svg width="40" height="40" viewBox="0 0 40 40" fill="none" xmlns="http://www.w3.org/2000/svg">
<g clip-path="url(#clip0_477_50)">
<path d="M20 39.8293C31.0457 39.8293 40 31.0739 40 20.2737C40 9.47346 31.0457 0.71814 20 0.71814C8.9543 0.71814 0 9.47346 0 20.2737C0 31.0739 8.9543 39.8293 20 39.8293Z" fill="#CFCFCF"/>
<path fill-rule="evenodd" clip-rule="evenodd" d="M10.9091 20.2737C10.9091 17.2581 10.9091 15.7502 11.482 14.587C12.0506 13.4326 13.0034 12.501 14.1842 11.945C15.3738 11.3848 16.9159 11.3848 20 11.3848C23.0841 11.3848 24.6262 11.3848 25.8158 11.945C26.9966 12.501 27.9494 13.4326 28.518 14.587C29.0909 15.7502 29.0909 17.2581 29.0909 20.2737C29.0909 23.2893 29.0909 24.7971 28.518 25.9603C27.9494 27.1149 26.9966 28.0464 25.8158 28.6024C24.6262 29.1626 23.0841 29.1626 20 29.1626C16.9159 29.1626 15.3738 29.1626 14.1842 28.6024C13.0034 28.0464 12.0506 27.1149 11.482 25.9603C10.9091 24.7971 10.9091 23.2893 10.9091 20.2737ZM19.9999 23.2231C21.6659 23.2231 23.0165 21.9026 23.0165 20.2735C23.0165 18.6446 21.6659 17.324 19.9999 17.324C18.3339 17.324 16.9833 18.6446 16.9833 20.2735C16.9833 21.9026 18.3339 23.2231 19.9999 23.2231ZM19.9999 25.0009C22.6701 25.0009 24.8346 22.8844 24.8346 20.2735C24.8346 17.6628 22.6701 15.5462 19.9999 15.5462C17.3297 15.5462 15.1651 17.6628 15.1651 20.2735C15.1651 22.8844 17.3297 25.0009 19.9999 25.0009ZM25.1257 16.115C25.7314 16.115 26.2223 15.635 26.2223 15.0429C26.2223 14.4508 25.7314 13.9707 25.1257 13.9707C24.5202 13.9707 24.0292 14.4508 24.0292 15.0429C24.0292 15.635 24.5202 16.115 25.1257 16.115Z" fill="#1A1A1A"/>
</g>
<defs>
<clipPath id="clip0_477_50">
<rect width="40" height="40" fill="white"/>
</clipPath>
</defs>
</svg>
