<svg width="40" height="40" viewBox="0 0 40 40" fill="none" xmlns="http://www.w3.org/2000/svg">
<g clip-path="url(#clip0_477_54)">
<path d="M20 39.8293C31.0457 39.8293 40 31.0739 40 20.2737C40 9.47346 31.0457 0.71814 20 0.71814C8.9543 0.71814 0 9.47346 0 20.2737C0 31.0739 8.9543 39.8293 20 39.8293Z" fill="#CFCFCF"/>
<path fill-rule="evenodd" clip-rule="evenodd" d="M20 10.4959C14.4772 10.4959 10 14.8735 10 20.2737C10 25.6738 14.4772 30.0515 20 30.0515C25.5228 30.0515 30 25.6738 30 20.2737C30 14.8735 25.5228 10.4959 20 10.4959ZM19.7635 18.3895V18.8659C19.7624 18.8659 19.7609 18.866 19.7596 18.866V20.451C19.5941 20.4008 19.4218 20.3745 19.2485 20.3729C18.8619 20.3748 18.4871 20.503 18.1836 20.7371C17.8802 20.9712 17.6655 21.2978 17.5736 21.665C17.4818 22.0321 17.5182 22.4188 17.677 22.7634C17.8357 23.108 18.1077 23.3908 18.4498 23.5668C18.4525 23.5691 18.4552 23.5713 18.4578 23.5735C18.6987 23.6896 18.9898 23.7517 19.2565 23.7539C20.1876 23.7524 20.9512 23.0317 20.9855 22.1219V14.0515H23.05C23.0485 14.2217 23.0629 14.3916 23.0933 14.5593C23.1645 14.9326 23.3134 15.2879 23.5296 15.6035C23.7459 15.9189 24.0256 16.1881 24.3518 16.3944C24.8145 16.695 25.3576 16.855 25.9131 16.8548V17.2916C25.9145 17.2918 25.9157 17.2921 25.9171 17.2924V18.8541C24.8886 18.8564 23.8856 18.5422 23.05 17.9561V22.0596C23.0456 24.1073 21.3467 25.765 19.2525 25.765C18.4782 25.7797 17.7181 25.5602 17.0762 25.1364C17.0343 25.0931 16.9935 25.0488 16.9538 25.0037C15.6835 24.062 15.1476 22.4364 15.6297 20.9392C16.1275 19.3933 17.5949 18.3431 19.2524 18.3466C19.4236 18.349 19.5944 18.3633 19.7635 18.3895Z" fill="#1A1A1A"/>
</g>
<defs>
<clipPath id="clip0_477_54">
<rect width="40" height="40" fill="white"/>
</clipPath>
</defs>
</svg>
