<svg width="40" height="40" viewBox="0 0 40 40" fill="none" xmlns="http://www.w3.org/2000/svg">
<g clip-path="url(#clip0_477_58)">
<path d="M20 39.8293C31.0457 39.8293 40 31.0739 40 20.2737C40 9.47346 31.0457 0.71814 20 0.71814C8.9543 0.71814 0 9.47346 0 20.2737C0 31.0739 8.9543 39.8293 20 39.8293Z" fill="#CFCFCF"/>
<path d="M29.5499 24.9662C29.3512 25.9625 28.5037 26.7218 27.4556 26.8626C25.8095 27.0996 23.0664 27.3848 19.9746 27.3848C16.9315 27.3848 14.1885 27.0996 12.4936 26.8626C11.4455 26.7218 10.598 25.9625 10.3994 24.9662C10.1986 23.8774 10 22.2644 10 20.2737C10 18.283 10.1986 16.67 10.3994 15.5811C10.598 14.5848 11.4455 13.8255 12.4936 13.6847C14.1398 13.4478 16.8829 13.1626 19.9746 13.1626C23.0664 13.1626 25.7607 13.4478 27.4556 13.6847C28.5037 13.8255 29.3512 14.5848 29.5499 15.5811C29.7506 16.67 30 18.283 30 20.2737C29.9494 22.2644 29.7506 23.8774 29.5499 24.9662ZM17.9798 23.5922L23.9645 20.2737L17.9798 16.9551V23.5922Z" fill="#1A1A1A"/>
</g>
<defs>
<clipPath id="clip0_477_58">
<rect width="40" height="40" fill="white"/>
</clipPath>
</defs>
</svg>
